<?xml version="1.0"?>
<svg xmlns="http://www.w3.org/2000/svg" viewBox="0 0 26 26" enable-background="new 0 0 26 26">
    <path d="M 7 0 C 6.4 0 6 0.4 6 1 L 6 4 C 6 4.6 6.4 5 7 5 C 7.6 5 8 4.6 8 4 L 8 1 C 8 0.4 7.6 0 7 0 z M 19 0 C 18.4 0 18 0.4 18 1 L 18 4 C 18 4.6 18.4 5 19 5 C 19.6 5 20 4.6 20 4 L 20 1 C 20 0.4 19.6 0 19 0 z M 3 2 C 1.3 2 0 3.3 0 5 L 0 23 C 0 24.7 1.3 26 3 26 L 23 26 C 24.7 26 26 24.7 26 23 L 26 5 C 26 3.3 24.7 2 23 2 L 21 2 L 21 4 C 21 5.1 20.1 6 19 6 C 17.9 6 17 5.1 17 4 L 17 2 L 9 2 L 9 4 C 9 5.1 8.1 6 7 6 C 5.9 6 5 5.1 5 4 L 5 2 L 3 2 z M 2 9 L 24 9 L 24 23 C 24 23.6 23.6 24 23 24 L 3 24 C 2.4 24 2 23.6 2 23 L 2 9 z M 9.1875 12.3125 C 8.0875 12.3125 7.09375 12.60625 6.59375 12.90625 L 7 14.3125 C 7.3 14.0125 8.0125 13.7875 8.8125 13.6875 C 9.6125 13.6875 10 14.09375 10 14.59375 C 10 15.29375 9.2 15.59375 8.5 15.59375 L 7.6875 15.59375 L 7.6875 17 L 8.5 17 C 9.4 17 10.1875 17.3875 10.1875 18.1875 C 10.1875 18.7875 9.6875 19.3125 8.6875 19.3125 C 7.8875 19.3125 7.0875 19.0125 6.6875 18.8125 L 6.3125 20.5 C 6.8125 20.8 7.7125 21.09375 8.8125 21.09375 C 11.0125 21.09375 12.3125 20 12.3125 18.5 C 12.3125 17.3 11.5 16.60625 10.5 16.40625 C 11.5 16.00625 12 15.30625 12 14.40625 C 12 13.20625 10.9875 12.3125 9.1875 12.3125 z M 16.40625 12.40625 L 14.1875 13.40625 L 14.5 14.90625 L 16.09375 14.09375 L 16.09375 20.90625 L 18 20.90625 L 18 12.40625 L 16.40625 12.40625 z"/>
</svg>
